<svg version="1" xmlns="http://www.w3.org/2000/svg" width="933.333" height="933.333" viewBox="0 0 700.000000 700.000000"><path d="M96 2C72.4 6.1 52.5 16.5 34.9 34 16.9 51.8 5.3 74.1 1.3 98.9.8 101.4.6 110 .6 118c.1 13.2.6 16.9 3.9 31 .1.8 1.4 4.4 2.8 8 12.4 33 38.5 58.5 71.2 69.8 7.8 2.7 12.9 4 19 4.8 2.8.3 5.3.8 5.7 1 .3.2 6.2.4 13 .5 31.7 0 60.4-11.8 82.7-34.1 9.6-9.5 18.5-22.2 23.1-32.6 1.7-3.8 3.5-7.8 4-8.9 1.9-4.3 5-16.3 5.6-21.5.3-3 .8-5.8 1-6.2.7-1.1.5-24.9-.1-28.3-2.5-12.8-4.1-19.2-7.1-26.8-14.1-36.6-46.2-63.9-85-72.3C129.4.1 108.1-.2 96 2zM570.9.5c-.3.2-2.8.7-5.7 1-17.4 2-41.9 13.2-57.1 26-11 9.3-23.9 25.9-29.5 37.9-8.6 18.3-11.3 31.1-12.1 56.6-.3 10.2-.8 20.3-1 22.5-.2 2.2-.7 6.5-1 9.5-.5 4.7-2.1 14.6-4 24-1.5 7.5-7.3 24.7-11.1 32.9-18.6 39.7-48.9 59.5-94.7 61.6-15.4.7-16.5.9-24.5 2.9-18.5 4.9-31.4 14-45 32.1-3.3 4.4-8.7 17.1-10.7 25.5-.7 2.6-1.7 13.4-2 21.5-1.3 32.2-10.9 55.6-31 74.8-2.7 2.6-7.5 6.4-10.5 8.5-3 2-5.7 4-6 4.3-1.4 1.6-19.8 10-27.6 12.7-22.4 7.6-41.5 10.7-73.7 11.7-18.1.6-24.2 1.2-32.2 3-23.1 5.3-42.6 16.2-58.9 33-15.4 15.7-28.3 41.9-31.3 63.2-1 6.9-1 27.9-.1 34.3 3.4 24.1 15.1 47.5 32.2 64.5 14.3 14.2 21.6 19.1 41.7 27.9 9.2 4 24.2 6.8 37.9 7.1 15.6.3 22-.4 35-3.9 15.6-4.2 33.9-14.1 45-24.2 1.9-1.8 4.7-4.3 6.1-5.6 7-6.3 15.8-18.6 21.7-30.3 6.1-12.1 8.8-20.9 11.6-38 .3-1.7.8-10.9 1.1-20.6.3-9.6.7-18.9.9-20.5.2-1.6.7-6.2 1.1-10.3.6-5.9 3.7-22.8 5.9-32.1 3.1-12.8 13-34.4 20.8-45 5.2-7.3 14.4-17.1 19-20.3 1.3-.9 4.1-2.9 6.3-4.5 9.2-6.5 25.9-12.8 40.5-15.2 8.5-1.5 30.5-1.8 39.5-.7 36.7 4.7 63.5 23.8 79.9 57 4.9 9.8 10.7 25.5 12 32 .2 1.2.9 4.3 1.5 7 .6 2.6 1.4 6.4 1.6 8.5.3 2 .8 4.8 1 6.2.3 1.4.7 4.5 1 7 .2 2.5.7 6.7 1 9.5.3 2.7.8 12.9 1 22.5.7 25.7 3.9 39.9 13 58.1 13.9 27.6 37.4 47.9 67.3 57.9 13 4.3 24.5 6 39.7 5.6 25.5-.7 46.4-8 67.2-23.4 7.5-5.7 19.8-17.9 23.1-23.2.9-1.4 1.9-2.7 2.2-3 1.2-1 6.7-10.6 9.7-17 3.4-7 6.7-16.3 8.2-23.2.6-2.4 1.3-5.7 1.7-7.3 1.3-5.9 1.2-30.1-.2-37.9-6.5-37.6-29.7-69-63.2-85.6-18.7-9.2-30.4-11.7-59.2-12.5-8.6-.2-17.6-.6-20-.9-2.5-.3-6.5-.8-9-1.1-11.3-1.3-14.1-1.8-22.8-3.6-64-13.8-97.8-53.2-96.6-112.9.2-13.4.7-17.8 3-28 7.9-35.1 32.2-60.5 70.9-74.5 12.2-4.4 30.8-8.6 45-10 3.3-.3 7.1-.8 8.5-1.1 1.4-.2 11.1-.6 21.5-.9 10.5-.3 22.7-1.2 27.2-2 42.1-7.8 75.8-36.9 90.2-77.8 1.7-4.8 2.8-8.7 2.6-8.7-.2 0-.1-1 .4-2.3 2.4-6.2 3.5-30.4 1.9-42.2-3-23.8-15.3-48.3-33.2-66.1-11.7-11.8-22.1-18.6-40.6-26.7-3.7-1.7-17.5-5.4-23.1-6.3-4.3-.7-30.5-1.5-31-.9z"/><path d="M241.5 195.4c-21.9 5.5-36.5 24.3-36.7 47.3-.2 28.9 27.1 52.3 55.4 47.5 18.7-3.2 32.8-15.3 38.8-33 8.5-25.7-6.6-53.7-33.3-61.6-5.7-1.6-18.1-1.8-24.2-.2z"/></svg>